<svg xmlns="http://www.w3.org/2000/svg" version="1.1" xmlns:xlink="http://www.w3.org/1999/xlink" xmlns:svgjs="http://svgjs.dev/svgjs" width="1440" height="560" preserveAspectRatio="none" viewBox="0 0 1440 560"><g mask="url(&quot;#SvgjsMask1035&quot;)" fill="none"><rect width="1440" height="560" x="0" y="0" fill="#0e2a47"></rect><path d="M649.02,432.861C700.129,431.854,750.993,414.58,778.179,371.289C807.075,325.275,808.116,267.539,783.144,219.283C755.909,166.655,708.227,119.282,649.02,121.705C592.388,124.023,559.684,179.716,532.652,229.534C507.324,276.212,484.355,330.466,510.734,376.558C537.231,422.855,595.687,433.912,649.02,432.861" fill="rgba(28, 83, 142, 0.4)" class="triangle-float2"></path><path d="M788.6795215251144-17.75949429617355L791.9888675895165 79.66987343966177 865.0346997942765 35.7795094837263z" fill="rgba(28, 83, 142, 0.4)" class="triangle-float1"></path><path d="M1181.732,556.117C1231.121,554.537,1282.464,538.618,1305.851,495.089C1328.333,453.244,1308.213,405.25,1285.082,363.76C1261.091,320.729,1230.919,275.259,1181.732,272.46C1128.843,269.45,1083.045,305.29,1055.781,350.711C1027.591,397.674,1014.42,456.801,1043.052,503.496C1070.753,548.671,1128.767,557.811,1181.732,556.117" fill="rgba(28, 83, 142, 0.4)" class="triangle-float2"></path><path d="M357.154198281853 376.5897255688924L517.8679753322144 365.35152350436044 345.91599621732104 215.87594851853095z" fill="rgba(28, 83, 142, 0.4)" class="triangle-float3"></path><path d="M4.01 398.76 a122.13 122.13 0 1 0 244.26 0 a122.13 122.13 0 1 0 -244.26 0z" fill="rgba(28, 83, 142, 0.4)" class="triangle-float2"></path><path d="M1380.855,118.654C1395.528,119.467,1409.273,111.699,1417.144,99.29C1425.646,85.885,1428.752,69.007,1421.2,55.045C1413.319,40.476,1397.418,32.071,1380.855,32.202C1364.516,32.331,1348.574,40.897,1341.599,55.674C1335.343,68.927,1343.166,83.185,1350.918,95.622C1358.056,107.074,1367.382,117.908,1380.855,118.654" fill="rgba(28, 83, 142, 0.4)" class="triangle-float3"></path><path d="M1259.921011200645 458.6668013579167L1257.2284437170097 304.40971353221937 1102.9713558913122 307.1022810158546 1105.6639233749474 461.359368841552z" fill="rgba(28, 83, 142, 0.4)" class="triangle-float3"></path><path d="M1047.8910670678817 321.7498490852864L1148.7693422159473 364.57013638830347 1191.5896295189643 263.6918612402379 1090.7113543708988 220.8715739372209z" fill="rgba(28, 83, 142, 0.4)" class="triangle-float2"></path><path d="M799.8026291742956 275.419823636336L898.4337242785728 341.94733730966624 964.9612379519031 243.31624220538902 866.3301428476258 176.7887285320588z" fill="rgba(28, 83, 142, 0.4)" class="triangle-float1"></path></g><defs><mask id="SvgjsMask1035"><rect width="1440" height="560" fill="#ffffff"></rect></mask><style>
                @keyframes float1 {
                    0%{transform: translate(0, 0)}
                    50%{transform: translate(-10px, 0)}
                    100%{transform: translate(0, 0)}
                }

                .triangle-float1 {
                    animation: float1 5s infinite;
                }

                @keyframes float2 {
                    0%{transform: translate(0, 0)}
                    50%{transform: translate(-5px, -5px)}
                    100%{transform: translate(0, 0)}
                }

                .triangle-float2 {
                    animation: float2 4s infinite;
                }

                @keyframes float3 {
                    0%{transform: translate(0, 0)}
                    50%{transform: translate(0, -10px)}
                    100%{transform: translate(0, 0)}
                }

                .triangle-float3 {
                    animation: float3 6s infinite;
                }
            </style></defs></svg>